<?xml version="1.0" encoding="UTF-8" standalone="no"?>
<!DOCTYPE svg PUBLIC "-//W3C//DTD SVG 1.1//EN" "http://www.w3.org/Graphics/SVG/1.1/DTD/svg11.dtd">
<!-- Created with Vectornator (http://vectornator.io/) -->
<svg height="100%" stroke-miterlimit="10" style="fill-rule:nonzero;clip-rule:evenodd;stroke-linecap:round;stroke-linejoin:round;" version="1.1" viewBox="0 0 3870.61 705.07" width="100%" xml:space="preserve" xmlns="http://www.w3.org/2000/svg" xmlns:vectornator="http://vectornator.io" xmlns:xlink="http://www.w3.org/1999/xlink">
<defs/>
<clipPath id="ArtboardFrame">
<rect height="705.07" width="3870.61" x="0" y="0"/>
</clipPath>
<g clip-path="url(#ArtboardFrame)" id="Untitled" vectornator:layerName="Untitled">
<path d="M1253.57 176.26L1253.57 528.81L1162.41 528.81L1024.92 330.38L1024.92 528.81L934.26 528.81L934.26 176.26L1025.42 176.26L1162.92 374.7L1162.92 176.26L1253.57 176.26Z" fill="#ffffff" fill-rule="evenodd" opacity="1" stroke="none"/>
<path d="M1283.81 398.37C1283.81 319.3 1342.23 261.88 1423.81 261.88C1505.39 261.88 1563.81 319.3 1563.81 398.37C1563.81 476.94 1505.39 534.85 1423.81 534.85C1342.23 534.85 1283.81 476.94 1283.81 398.37ZM1477.2 398.37C1477.2 363.11 1454.04 341.46 1423.82 341.46C1393.6 341.46 1370.43 363.11 1370.43 398.37C1370.43 433.63 1393.6 455.28 1423.82 455.28C1454.04 455.28 1477.2 433.62 1477.2 398.37L1477.2 398.37Z" fill="#ffffff" fill-rule="evenodd" opacity="1" stroke="none"/>
<path d="M1850.41 267.92L1752.71 528.81L1653 528.81L1555.29 267.92L1650 267.92L1702.88 424.05L1755.76 267.92L1850.41 267.92Z" fill="#ffffff" fill-rule="evenodd" opacity="1" stroke="none"/>
<path d="M2117.36 267.92L2117.36 528.81L2031.74 528.81L2031.74 514.71C2013.61 528.3 1991.95 534.85 1968.28 534.85C1898.78 534.85 1841.87 477.94 1841.87 398.37C1841.87 318.8 1898.78 261.88 1968.28 261.88C1991.95 261.88 2013.61 268.43 2031.74 282.03L2031.74 267.92L2117.36 267.92ZM2031.74 434.12L2031.74 362.61C2019.34 349.034 2001.77 341.348 1983.39 341.46C1950.15 341.46 1928.49 364.12 1928.49 398.37C1928.49 432.62 1950.15 455.28 1983.39 455.28C2001.78 455.393 2019.35 447.703 2031.74 434.12L2031.74 434.12Z" fill="#ffffff" fill-rule="evenodd" opacity="1" stroke="none"/>
<path d="M2251.34 260.88L2251.34 319.8L2402.43 319.8L2402.43 404.41L2251.34 404.41L2251.34 528.81L2160.68 528.81L2160.68 176.26L2417.54 176.26L2417.54 260.88L2251.34 260.88Z" fill="#ffffff" fill-rule="evenodd" opacity="1" stroke="none"/>
<path d="M2624.56 265.41L2621.56 344.98C2614.04 344.075 2606.47 343.571 2598.9 343.47C2573.72 343.47 2550.56 353.54 2533.43 373.69L2533.43 528.81L2447.81 528.81L2447.81 267.92L2533.43 267.92L2533.43 290.59C2549.84 272.254 2573.3 261.806 2597.9 261.88C2606.9 261.912 2615.86 263.098 2624.56 265.41Z" fill="#ffffff" fill-rule="evenodd" opacity="1" stroke="none"/>
<path d="M2633.63 192.89C2633.63 166.19 2656.3 143.53 2685 143.53C2712.7 143.53 2735.37 166.19 2735.37 192.89C2735.28 220.67 2712.78 243.168 2685 243.25C2656.3 243.25 2633.63 220.58 2633.63 192.89ZM2641.69 267.89L2727.31 267.89L2727.31 528.81L2641.69 528.81L2641.69 267.89Z" fill="#ffffff" fill-rule="evenodd" opacity="1" stroke="none"/>
<path d="M3027 421.53L2839.12 421.53C2846.17 449.24 2865.81 463.34 2898.55 463.34C2920.71 463.34 2941.35 456.79 2961.5 436.64L3020.43 481.47C2989.2 517.73 2947.43 534.85 2898.04 534.85C2808.9 534.85 2754.51 479.46 2754.51 400.38C2754.51 320.3 2811.42 261.88 2896.51 261.88C2974.07 261.88 3028.97 310.23 3028.97 392.88C3029.01 402.465 3028.35 412.041 3027 421.53ZM2842.17 365.13L2943.9 365.13C2937.36 341.96 2919.73 331.89 2895.05 331.89C2868.83 331.89 2850.7 343 2842.14 365.13L2842.17 365.13Z" fill="#ffffff" fill-rule="evenodd" opacity="1" stroke="none"/>
<path d="M3312.05 371.68L3312.05 528.81L3226.43 528.81L3226.43 389.81C3226.43 356.57 3211.82 341.46 3187.65 341.46C3171.54 341.46 3155.92 348.51 3141.82 363.62L3141.82 528.81L3056.2 528.81L3056.2 267.92L3141.82 267.92L3141.82 284.55C3162.47 269.44 3186.64 261.88 3212.82 261.88C3272.26 261.88 3312.05 301.16 3312.05 371.68Z" fill="#ffffff" fill-rule="evenodd" opacity="1" stroke="none"/>
<path d="M3612.23 157.13L3612.23 528.81L3526.61 528.81L3526.61 514.71C3508.48 528.3 3486.82 534.85 3463.15 534.85C3393.65 534.85 3336.74 477.94 3336.74 398.37C3336.74 318.8 3393.65 261.88 3463.15 261.88C3486.82 261.88 3508.48 268.43 3526.61 282.03L3526.61 157.13L3612.23 157.13ZM3526.61 434.13L3526.61 362.61C3514.21 349.034 3496.64 341.348 3478.26 341.46C3445.02 341.46 3423.37 364.12 3423.37 398.37C3423.37 432.62 3445.02 455.28 3478.26 455.28C3496.65 455.393 3514.22 447.703 3526.61 434.12L3526.61 434.13Z" fill="#ffffff" fill-rule="evenodd" opacity="1" stroke="none"/>
<path d="M3636.42 501.61L3673.18 437.15C3703.4 455.28 3733.12 464.35 3756.79 464.35C3775.42 464.35 3784.48 458.8 3784.48 450.24C3784.48 443.69 3778.95 438.66 3761.32 434.63L3717.5 424.05C3664.62 411.46 3643.5 387.29 3643.5 349.51C3643.5 297.14 3684.8 261.88 3755.81 261.88C3799.12 261.88 3838.91 274.98 3867.11 295.12L3829.34 356.57C3800.13 340.45 3774.44 332.39 3753.79 332.39C3736.67 332.39 3728.61 337.93 3728.61 344.98C3728.61 350.98 3734.61 355.06 3750.77 359.09L3794.59 369.66C3848.48 382.76 3870.64 406.42 3870.64 446.21C3870.64 500.61 3828.83 534.85 3754.8 534.85C3710 534.85 3666.63 522.26 3636.42 501.61Z" fill="#ffffff" fill-rule="evenodd" opacity="1" stroke="none"/>
<path d="M282 617C175.09 617 88.11 530 88.11 423L88.11 151.32C34.849 172.849-0.0120146 224.553 2.24085e-06 282L2.24085e-06 564C1.45846e-05 641.872 63.1279 705 141 705L423 705C480.456 705.045 532.198 670.236 553.81 617L282 617Z" fill="#00c8ff" fill-rule="evenodd" opacity="1" stroke="none"/>
<path d="M564.09 0L282.09 0C204.183-0.0497441 141 63.0927 141 141L141 423C141 500.872 204.128 564 282 564L564 564C641.854 563.956 704.956 500.854 705 423L705 141C705 63.163 641.927 0.0496852 564.09 0ZM599.34 274.08C599.34 314.08 576.34 348.37 539.49 363.66C502.64 378.95 462.05 370.88 433.84 342.66L362.43 271.3C351.15 260.02 338.51 263.52 333.61 265.55C328.71 267.58 317.31 274.07 317.31 289.97L317.31 423.06C316.986 442.299 301.297 457.726 282.055 457.726C262.813 457.726 247.124 442.299 246.8 423.06L246.8 289.93C246.8 250 269.7 215.65 306.64 200.36C343.58 185.07 384.04 193.14 412.29 221.36L483.65 292.77C494.93 304.05 507.57 300.5 512.47 298.47C517.37 296.44 528.83 290.01 528.83 274.04L528.83 141C528.616 128.263 535.288 116.401 546.284 109.97C557.28 103.539 570.89 103.539 581.886 109.97C592.882 116.401 599.554 128.263 599.34 141L599.34 274.08Z" fill="#ffffff" fill-rule="evenodd" opacity="1" stroke="none"/>
</g>
</svg>
