<?xml version="1.0" encoding="UTF-8" standalone="no"?>
<!DOCTYPE svg PUBLIC "-//W3C//DTD SVG 1.1//EN" "http://www.w3.org/Graphics/SVG/1.1/DTD/svg11.dtd">
<!-- Created with Vectornator (http://vectornator.io/) -->
<svg height="100%" stroke-miterlimit="10" style="fill-rule:nonzero;clip-rule:evenodd;stroke-linecap:round;stroke-linejoin:round;" version="1.1" viewBox="0 0 2225 1500" width="100%" xml:space="preserve" xmlns="http://www.w3.org/2000/svg" xmlns:vectornator="http://vectornator.io" xmlns:xlink="http://www.w3.org/1999/xlink">
<defs/>
<clipPath id="ArtboardFrame">
<rect height="1500" width="2225" x="0" y="0"/>
</clipPath>
<g clip-path="url(#ArtboardFrame)" id="Untitled" vectornator:layerName="Untitled">
<g opacity="1">
<path d="M848.808 681.818L848.808 818.182L813.547 818.182L760.366 741.429L760.366 818.182L725.301 818.182L725.301 681.818L760.562 681.818L813.743 758.571L813.743 681.818L848.808 681.818Z" fill="#0d1013" fill-rule="evenodd" opacity="1" stroke="none"/>
<g opacity="1">
<clipPath id="ClipPath">
<path d="M0-2.84217e-14L2225-2.84217e-14L2225 1500L0 1500L0-2.84217e-14Z" fill-rule="evenodd"/>
</clipPath>
<g clip-path="url(#ClipPath)">
<path d="M935.309 767.727C935.309 754.09 926.349 745.714 914.66 745.714C902.973 745.714 894.01 754.09 894.01 767.727C894.01 781.364 902.973 789.74 914.66 789.74C926.349 789.74 935.309 781.364 935.309 767.727M860.504 767.727C860.504 737.143 883.102 714.935 914.66 714.935C946.218 714.935 968.815 737.143 968.815 767.727C968.815 798.117 946.218 820.519 914.66 820.519C883.102 820.519 860.504 798.117 860.504 767.727" fill="#0d1013" fill-rule="evenodd" opacity="1" stroke="none"/>
<path d="M1079.66 717.272L1041.87 818.181L1003.3 818.181L965.51 717.272L1002.13 717.272L1022.59 777.661L1043.04 717.272L1079.66 717.272Z" fill="#0d1013" fill-rule="evenodd" opacity="1" stroke="none"/>
<path d="M1149.8 781.558L1149.8 753.897C1144.74 748.441 1138.11 745.715 1131.1 745.715C1118.24 745.715 1109.87 754.481 1109.87 767.727C1109.87 780.973 1118.24 789.74 1131.1 789.74C1138.11 789.74 1144.74 787.013 1149.8 781.558M1182.92 717.273L1182.92 818.182L1149.8 818.182L1149.8 812.727C1142.79 817.986 1134.41 820.519 1125.26 820.519C1098.37 820.519 1076.36 798.507 1076.36 767.727C1076.36 736.948 1098.37 714.935 1125.26 714.935C1134.41 714.935 1142.79 717.468 1149.8 722.728L1149.8 717.273L1182.92 717.273Z" fill="#0d1013" fill-rule="evenodd" opacity="1" stroke="none"/>
<path d="M1234.74 714.546L1234.74 737.337L1293.18 737.337L1293.18 770.065L1234.74 770.065L1234.74 818.182L1199.68 818.182L1199.68 681.818L1299.03 681.818L1299.03 714.546L1234.74 714.546Z" fill="#0d1013" fill-rule="evenodd" opacity="1" stroke="none"/>
<path d="M1379.1 716.298L1377.93 747.077C1374.43 746.688 1371.5 746.493 1369.17 746.493C1359.43 746.493 1350.46 750.389 1343.84 758.182L1343.84 818.182L1310.73 818.182L1310.73 717.272L1343.84 717.272L1343.84 726.039C1350.46 718.635 1359.62 714.935 1368.78 714.935C1371.89 714.935 1375.4 715.324 1379.1 716.298" fill="#0d1013" fill-rule="evenodd" opacity="1" stroke="none"/>
<path d="M1385.73 717.272L1418.84 717.272L1418.84 818.181L1385.73 818.181L1385.73 717.272ZM1382.61 688.248C1382.61 677.922 1391.38 669.157 1402.48 669.157C1413.19 669.157 1421.96 677.922 1421.96 688.248C1421.96 698.96 1413.19 707.727 1402.48 707.727C1391.38 707.727 1382.61 698.96 1382.61 688.248" fill="#0d1013" fill-rule="evenodd" opacity="1" stroke="none"/>
<path d="M1463.26 754.87L1502.61 754.87C1500.08 745.908 1493.26 742.013 1483.71 742.013C1473.58 742.013 1466.57 746.299 1463.26 754.87M1534.75 776.687L1462.09 776.687C1464.82 787.402 1472.41 792.857 1485.08 792.857C1493.65 792.857 1501.63 790.324 1509.43 782.531L1532.22 799.869C1520.14 813.896 1503.97 820.519 1484.88 820.519C1450.4 820.519 1429.36 799.091 1429.36 768.505C1429.36 737.532 1451.38 714.935 1484.3 714.935C1514.3 714.935 1535.53 733.636 1535.53 765.583C1535.53 769.09 1535.34 772.597 1534.75 776.687" fill="#0d1013" fill-rule="evenodd" opacity="1" stroke="none"/>
<path d="M1645.02 757.404L1645.02 818.182L1611.9 818.182L1611.9 764.416C1611.9 751.559 1606.25 745.715 1596.9 745.715C1590.67 745.715 1584.63 748.442 1579.18 754.286L1579.18 818.182L1546.06 818.182L1546.06 717.273L1579.18 717.273L1579.18 723.702C1587.16 717.858 1596.51 714.935 1606.64 714.935C1629.63 714.935 1645.02 730.13 1645.02 757.404" fill="#0d1013" fill-rule="evenodd" opacity="1" stroke="none"/>
<path d="M1728.01 781.558L1728.01 753.897C1722.95 748.441 1716.32 745.715 1709.31 745.715C1696.45 745.715 1688.08 754.481 1688.08 767.727C1688.08 780.973 1696.45 789.74 1709.31 789.74C1716.32 789.74 1722.95 787.013 1728.01 781.558M1761.13 674.417L1761.13 818.182L1728.01 818.182L1728.01 812.727C1721 817.986 1712.62 820.519 1703.46 820.519C1676.58 820.519 1654.57 798.507 1654.57 767.727C1654.57 736.948 1676.58 714.935 1703.46 714.935C1712.62 714.935 1721 717.468 1728.01 722.728L1728.01 674.417L1761.13 674.417Z" fill="#0d1013" fill-rule="evenodd" opacity="1" stroke="none"/>
<path d="M1770.48 807.662L1784.7 782.727C1796.39 789.739 1807.89 793.246 1817.04 793.246C1824.25 793.246 1827.75 791.102 1827.75 787.791C1827.75 785.258 1825.61 783.31 1818.79 781.753L1801.85 777.661C1781.39 772.791 1773.21 763.441 1773.21 748.83C1773.21 728.572 1789.18 714.934 1816.65 714.934C1833.4 714.934 1848.79 720.001 1859.7 727.791L1845.09 751.558C1833.79 745.325 1823.86 742.207 1815.87 742.207C1809.25 742.207 1806.13 744.351 1806.13 747.077C1806.13 749.415 1808.47 750.974 1814.7 752.533L1831.65 756.622C1852.5 761.689 1861.07 770.842 1861.07 786.232C1861.07 807.273 1844.9 820.519 1816.26 820.519C1798.92 820.519 1782.17 815.648 1770.48 807.662" fill="#0d1013" fill-rule="evenodd" opacity="1" stroke="none"/>
<path d="M473.024 852.28C431.657 852.28 398.013 818.636 398.013 777.269L398.013 672.171C378.028 680.244 363.933 699.836 363.933 722.723L363.933 831.814C363.933 861.945 388.348 886.36 418.479 886.36L527.569 886.36C550.457 886.36 570.05 872.265 578.144 852.28L473.024 852.28Z" fill="#00c8ff" fill-rule="evenodd" opacity="1" stroke="none"/>
<path d="M595.756 719.655C595.756 735.124 586.876 748.39 572.607 754.302C558.316 760.215 542.65 757.095 531.741 746.164L504.12 718.564C499.756 714.2 494.869 715.553 492.97 716.339C491.072 717.124 486.665 719.633 486.665 725.786L486.665 777.277C486.665 784.804 480.556 790.913 473.029 790.913C465.501 790.913 459.392 784.804 459.392 777.277L459.392 725.786C459.392 710.339 468.25 697.051 482.541 691.139C496.81 685.226 512.476 688.346 523.407 699.277L551.007 726.899C555.371 731.262 560.258 729.888 562.156 729.102C564.054 728.317 568.483 725.83 568.483 719.655L568.483 668.186C568.483 660.659 574.592 654.55 582.12 654.55C589.647 654.55 595.756 660.659 595.756 668.186L595.756 719.655ZM582.12 613.64L473.029 613.64C442.898 613.64 418.483 638.055 418.483 668.186L418.483 777.277C418.483 807.386 442.898 831.822 473.029 831.822L582.12 831.822C612.229 831.822 636.665 807.386 636.665 777.277L636.665 668.186C636.665 638.055 612.229 613.64 582.12 613.64" fill="#ff4b58" fill-rule="evenodd" opacity="1" stroke="none"/>
</g>
</g>
</g>
</g>
</svg>
